<?xml version="1.0" encoding="iso-8859-1"?>
<!-- Generator: Adobe Illustrator 19.0.0, SVG Export Plug-In . SVG Version: 6.00 Build 0)  -->
<svg version="1.1" id="Capa_1" xmlns="http://www.w3.org/2000/svg" xmlns:xlink="http://www.w3.org/1999/xlink" x="0px" y="0px"
	 viewBox="0 0 512 512" style="enable-background:new 0 0 512 512;" xml:space="preserve">
<g>
	<g>
		<path d="M149,320c-38.598,0-70,31.402-70,70c0,38.598,31.402,70,70,70s70-31.402,70-70C219,351.402,187.598,320,149,320z M149,440
			c-27.57,0-50-22.43-50-50s22.43-50,50-50s50,22.43,50,50S176.57,440,149,440z"/>
	</g>
</g>
<g>
	<g>
		<path d="M251.593,323.959c-11.196-17.356-26.527-31.536-44.593-41.31V58c0-31.981-26.019-58-58-58S91,26.019,91,58v224.649
			c-18.066,9.773-33.397,23.953-44.593,41.31C33.711,343.642,27,366.479,27,390c0,67.271,54.729,122,122,122s122-54.729,122-122
			C271,366.479,264.289,343.642,251.593,323.959z M149,492c-56.243,0-102-45.757-102-102c0-39.176,22.881-75.36,58.291-92.184
			c3.487-1.656,5.709-5.172,5.709-9.032V58c0-20.953,17.047-38,38-38s38,17.047,38,38v230.784c0,3.86,2.222,7.376,5.709,9.032
			C228.119,314.64,251,350.824,251,390C251,446.243,205.243,492,149,492z"/>
	</g>
</g>
<g>
	<g>
		<path d="M156.069,45.93C154.21,44.07,151.63,43,149,43s-5.21,1.07-7.07,2.93S139,50.37,139,53s1.069,5.21,2.93,7.07
			c1.861,1.86,4.44,2.93,7.07,2.93s5.21-1.07,7.069-2.93C157.93,58.21,159,55.63,159,53S157.93,47.79,156.069,45.93z"/>
	</g>
</g>
<g>
	<g>
		<path d="M149,86.333c-5.522,0-10,4.477-10,10v187.424c0,5.522,4.478,10,10,10c5.522,0,10-4.478,10-10V96.333
			C159,90.81,154.522,86.333,149,86.333z"/>
	</g>
</g>
<g>
	<g>
		<path d="M253.667,40h-18c-5.522,0-10,4.477-10,10s4.478,10,10,10h18c5.522,0,10-4.477,10-10S259.189,40,253.667,40z"/>
	</g>
</g>
<g>
	<g>
		<path d="M253.667,103.954h-18c-5.522,0-10,4.477-10,10s4.478,10,10,10h18c5.522,0,10-4.477,10-10S259.189,103.954,253.667,103.954
			z"/>
	</g>
</g>
<g>
	<g>
		<path d="M253.667,167.907h-18c-5.522,0-10,4.477-10,10s4.478,10,10,10h18c5.522,0,10-4.477,10-10S259.189,167.907,253.667,167.907
			z"/>
	</g>
</g>
<g>
	<g>
		<path d="M253.667,231.861h-18c-5.522,0-10,4.477-10,10c0,5.523,4.478,10,10,10h18c5.522,0,10-4.477,10-10
			C263.667,236.338,259.189,231.861,253.667,231.861z"/>
	</g>
</g>
<g>
	<g>
		<path d="M62.333,40h-18c-5.522,0-10,4.477-10,10s4.478,10,10,10h18c5.522,0,10-4.477,10-10S67.855,40,62.333,40z"/>
	</g>
</g>
<g>
	<g>
		<path d="M62.333,103.954h-18c-5.522,0-10,4.477-10,10s4.478,10,10,10h18c5.522,0,10-4.477,10-10S67.855,103.954,62.333,103.954z"
			/>
	</g>
</g>
<g>
	<g>
		<path d="M62.333,167.907h-18c-5.522,0-10,4.477-10,10s4.478,10,10,10h18c5.522,0,10-4.477,10-10S67.855,167.907,62.333,167.907z"
			/>
	</g>
</g>
<g>
	<g>
		<path d="M62.333,231.861h-18c-5.522,0-10,4.477-10,10c0,5.523,4.478,10,10,10h18c5.522,0,10-4.477,10-10
			C72.333,236.338,67.855,231.861,62.333,231.861z"/>
	</g>
</g>
<g>
	<g>
		<path d="M427.679,306.93c-1.861-1.86-4.439-2.93-7.07-2.93c-2.63,0-5.21,1.069-7.069,2.93c-1.87,1.86-2.931,4.44-2.931,7.07
			s1.061,5.21,2.931,7.069c1.859,1.86,4.439,2.931,7.069,2.931c2.631,0,5.21-1.07,7.07-2.931c1.86-1.859,2.93-4.439,2.93-7.069
			S429.54,308.79,427.679,306.93z"/>
	</g>
</g>
<g>
	<g>
		<path d="M443,118h-12.392V30.392c0-16.542-13.458-30-30-30s-30,13.458-30,30V118H359c-23.159,0-42,18.841-42,42s18.841,42,42,42
			h11.608v280c0,16.542,13.458,30,30,30s30-13.458,30-30V357c0-5.522-4.478-10-10-10c-5.522,0-10,4.478-10,10v125
			c0,5.514-4.486,10-10,10c-5.514,0-10-4.486-10-10V202h20v73c0,5.522,4.478,10,10,10c5.522,0,10-4.478,10-10v-73H443
			c23.159,0,42-18.841,42-42S466.159,118,443,118z M390.608,30.392c0-5.514,4.486-10,10-10c5.514,0,10,4.486,10,10V118h-20V30.392z
			 M443,182h-84c-12.131,0-22-9.869-22-22s9.869-22,22-22h84c12.131,0,22,9.869,22,22S455.131,182,443,182z"/>
	</g>
</g>
<g>
</g>
<g>
</g>
<g>
</g>
<g>
</g>
<g>
</g>
<g>
</g>
<g>
</g>
<g>
</g>
<g>
</g>
<g>
</g>
<g>
</g>
<g>
</g>
<g>
</g>
<g>
</g>
<g>
</g>
</svg>
