<?xml version="1.0" encoding="iso-8859-1"?>
<!-- Generator: Adobe Illustrator 16.0.0, SVG Export Plug-In . SVG Version: 6.00 Build 0)  -->
<!DOCTYPE svg PUBLIC "-//W3C//DTD SVG 1.1//EN" "http://www.w3.org/Graphics/SVG/1.1/DTD/svg11.dtd">
<svg version="1.1" id="Capa_1" xmlns="http://www.w3.org/2000/svg" xmlns:xlink="http://www.w3.org/1999/xlink" x="0px" y="0px"
	 width="516.301px" height="516.301px" viewBox="0 0 516.301 516.301" style="enable-background:new 0 0 516.301 516.301;"
	 xml:space="preserve">
<g>
	<g>
		<path d="M284.9,361.4l-26.8-141.5l-26.8,141.5c-13.4,7.7-21,23-21,40.2c0,26.8,21,47.8,47.8,47.8c26.8,0,47.8-21,47.8-47.8
			C306,384.301,298.301,370.9,284.9,361.4z M258.2,430.2c-15.3,0-28.7-13.399-28.7-28.699c0-15.301,13.4-28.7,28.7-28.7
			c15.3,0,28.701,13.399,28.701,28.7C286.9,416.801,273.5,430.2,258.2,430.2z"/>
		<path d="M141.5,149.101c-3.8-3.8-9.6-5.7-13.4-1.9c-3.8,3.8-5.7,9.6-1.9,13.4l34.4,45.9c3.8,3.8,9.6,5.7,13.4,1.9
			c3.8-3.8,5.7-9.6,1.9-13.4L141.5,149.101z"/>
		<path d="M109,363.301l-55.5,17.2c-5.7,1.899-7.7,7.699-5.7,11.5c1.9,5.699,7.6,7.6,11.5,5.699l55.5-17.199
			c5.7-1.9,7.6-7.601,5.7-11.5C120.5,365.2,114.7,361.4,109,363.301z"/>
		<path d="M116.6,269.601l-55.5-17.2c-5.7-1.9-9.6,1.9-11.5,5.7c-1.9,5.7,1.9,9.6,5.7,11.5l55.5,17.2c5.7,1.899,9.6-1.9,11.5-5.7
			C122.4,275.301,120.5,269.601,116.6,269.601z"/>
		<path d="M267.699,172v-57.4c0-5.7-3.799-9.6-9.599-9.6c-5.8,0-9.6,3.8-9.6,9.6V172c0,5.7,3.8,9.6,9.6,9.6
			C263.9,181.601,267.699,177.801,267.699,172z"/>
		<path d="M374.801,149.101L340.4,195c-3.801,3.8-1.9,9.6,1.9,13.4c3.799,3.8,9.6,1.9,13.398-1.9l34.4-45.9
			c3.801-3.8,1.9-9.6-1.9-13.4C382.5,143.301,376.699,145.301,374.801,149.101z"/>
		<path d="M457.1,252.4l-55.5,17.2c-5.699,1.9-7.6,7.6-5.699,11.5c0,3.8,5.699,7.7,11.5,5.7l55.5-17.2
			c5.699-1.9,7.699-7.7,5.699-11.5C466.6,252.4,460.9,250.5,457.1,252.4z"/>
		<path d="M258.2,66.9C114.8,66.9,0,181.701,0,325.101c0,28.7,5.7,57.4,13.4,84.1l19.1-5.699c-9.6-24.9-13.4-51.601-13.4-78.4
			c0-132,107.1-239.1,239.1-239.1s239,107.1,239,239c0,26.8-3.799,53.5-13.398,78.399l19.1,5.7c9.6-26.8,13.4-53.5,13.4-84.1
			C516.4,181.601,401.6,66.9,258.2,66.9z"/>
		<path d="M460.9,380.501l-55.5-17.2c-5.701-1.9-9.6,1.899-11.5,5.7c-1.9,5.699,1.9,9.6,5.699,11.5l55.5,17.199
			c5.701,1.9,9.6-1.899,11.5-5.699C468.5,388.101,466.6,382.4,460.9,380.501z"/>
	</g>
</g>
<g>
</g>
<g>
</g>
<g>
</g>
<g>
</g>
<g>
</g>
<g>
</g>
<g>
</g>
<g>
</g>
<g>
</g>
<g>
</g>
<g>
</g>
<g>
</g>
<g>
</g>
<g>
</g>
<g>
</g>
</svg>
