<?xml version="1.0"?>
<svg xmlns="http://www.w3.org/2000/svg" viewBox="0 0 64 64" width="512" height="512"><g id="Wind_energy" data-name="Wind energy"><path d="M22,12.819a1,1,0,0,0,.667-.254q.448-.4.934-.766a1,1,0,1,0-1.2-1.6q-.55.416-1.066.875A1,1,0,0,0,22,12.819Z"/><path d="M46,45a15.88,15.88,0,0,0-8.466,2.448l-.989-9.115a16.022,16.022,0,0,0,7.547-4.887L47.6,34.577a2.255,2.255,0,0,0,.589.078,2.308,2.308,0,0,0,1.6-3.968L47.1,28.252A15.873,15.873,0,0,0,48,23a1,1,0,0,0-2,0,13.911,13.911,0,0,1-.533,3.779l-2.806-2.536a8.907,8.907,0,0,0-5.11-2.576l-.79-.115a4.976,4.976,0,0,0-1.123-1.959l.29-.731a9.034,9.034,0,0,0,.64-3.6A8.993,8.993,0,0,1,40.82,21.2a1,1,0,0,0,.979.8.976.976,0,0,0,.2-.02A1,1,0,0,0,42.78,20.8a11.014,11.014,0,0,0-6.589-7.956L34.226,3.7a2.306,2.306,0,0,0-4.463.049l-1.951,9.085a11.041,11.041,0,0,0-5.34,4.665,1,1,0,1,0,1.732,1,9,9,0,0,1,3.231-3.245,8.98,8.98,0,0,0,.636,3.6l.291.733a4.986,4.986,0,0,0-1.123,1.96l-.786.115A8.858,8.858,0,0,0,21.379,24.2l-2.846,2.575a13.9,13.9,0,0,1,1.622-11.245,1,1,0,0,0-1.692-1.068A15.9,15.9,0,0,0,16.9,28.252l-2.73,2.47a2.3,2.3,0,0,0,1.64,3.925,2.44,2.44,0,0,0,.634-.084l3.46-1.117a16.017,16.017,0,0,0,7.547,4.887l-.228,2.1A20.982,20.982,0,0,0,2,61a1,1,0,0,0,1,1H61a1,1,0,0,0,1-1A16.019,16.019,0,0,0,46,45Zm-9.675-8.691-.643-5.926A8.762,8.762,0,0,0,38.353,31.6l3.652,1.177A14.01,14.01,0,0,1,36.325,36.309ZM32,20a3,3,0,1,1-3,3A3,3,0,0,1,32,20Zm-1.438,8.241.3-.383a4.607,4.607,0,0,0,2.27,0l.3.383.927,8.543a13.055,13.055,0,0,1-4.73,0Zm17.85,3.9a.313.313,0,0,1-.246.524l-2.793-.9a15.911,15.911,0,0,0,.9-1.56Zm-7.133-6.448L44.725,28.8a13.966,13.966,0,0,1-1.341,2.315l-4.47-1.441a6.925,6.925,0,0,1-3.724-2.445l-.2-.25A4.972,4.972,0,0,0,36.939,23.6l.325.047A6.98,6.98,0,0,1,41.279,25.688ZM31.706,4.219c.067-.25.532-.2.576-.049l1.724,8.019a10.206,10.206,0,0,0-4.016.021ZM32,14a8.957,8.957,0,0,1,2.453.347,6.915,6.915,0,0,1-.382,3.774l-.112.281a4.974,4.974,0,0,0-3.918,0l-.113-.284a6.917,6.917,0,0,1-.38-3.768A8.936,8.936,0,0,1,32,14ZM22.761,25.649a6.929,6.929,0,0,1,3.978-2l.322-.047a4.97,4.97,0,0,0,1.947,3.382l-.2.254a6.974,6.974,0,0,1-3.775,2.457l-4.417,1.426A13.935,13.935,0,0,1,19.275,28.8Zm-6.879,7a.313.313,0,0,1-.33-.476L17.731,30.2a16.044,16.044,0,0,0,.9,1.561Zm6.112.127,3.6-1.162a8.945,8.945,0,0,0,2.725-1.231l-.643,5.928A14.022,14.022,0,0,1,21.994,32.773ZM23,42a19.066,19.066,0,0,1,4.01.435L25.1,60H4.026A19.025,19.025,0,0,1,23,42Zm6.419-3.228a14.723,14.723,0,0,0,5.162,0L35.669,48.8A15.96,15.96,0,0,0,30.051,60H27.114ZM32.035,60a14,14,0,0,1,27.93,0Z"/><path d="M51,12h2.719L52.03,18.757a1,1,0,0,0,1.677.95l8-8A1,1,0,0,0,61,10H59.133l.859-6.876a1,1,0,0,0-1.7-.831l-8,8A1,1,0,0,0,51,12Zm6.646-6.232-.638,5.108A1,1,0,0,0,58,12h.586l-3.74,3.74,1.124-4.5A1,1,0,0,0,55,10H53.414Z"/><path d="M3,12H5v2a1,1,0,0,0,2,0V12H9a1,1,0,0,0,0-2H7V8A1,1,0,0,0,5,8v2H3a1,1,0,0,0,0,2Z"/><path d="M11,7h2V9a1,1,0,0,0,2,0V7h2a1,1,0,0,0,0-2H15V3a1,1,0,0,0-2,0V5H11a1,1,0,0,0,0,2Z"/><path d="M45.2,18.334q.162.459.293.933A1,1,0,0,0,46.46,20a1.029,1.029,0,0,0,.268-.036,1,1,0,0,0,.7-1.231q-.15-.542-.336-1.067c-.05-.142-.1-.284-.157-.423a1,1,0,1,0-1.863.725Q45.14,18.149,45.2,18.334Z"/><path d="M55,58a1,1,0,0,0,1,1h1a1,1,0,0,0,0-2H56A1,1,0,0,0,55,58Z"/><path d="M52,57H44a1,1,0,0,0,0,2h8a1,1,0,0,0,0-2Z"/><path d="M8,57H7a1,1,0,0,0,0,2H8a1,1,0,0,0,0-2Z"/><path d="M20,57H12a1,1,0,0,0,0,2h8a1,1,0,0,0,0-2Z"/></g></svg>
